<svg width="160" height="45" viewBox="0 0 160 45" fill="none" xmlns="http://www.w3.org/2000/svg">
<path fill-rule="evenodd" clip-rule="evenodd" d="M148.973 18.5733C148.829 18.6018 148.685 18.9147 148.685 19.0853C148.656 20.2229 148.627 23.2381 148.627 25.2858C148.627 25.3428 148.713 25.4564 148.8 25.4564C149.232 25.4849 150.271 25.5134 151.165 25.5134C152.405 25.5134 153.126 25.3428 153.529 25.1722C154.567 24.6602 155.058 23.5508 155.058 22.3277C155.058 19.5688 153.097 18.5163 150.184 18.5163C149.982 18.4881 149.406 18.4881 148.973 18.5733ZM156.413 31.2873C156.413 28.4716 154.308 26.907 150.501 26.907C150.328 26.907 149.117 26.8786 148.829 26.9355C148.742 26.964 148.627 27.0209 148.627 27.1064C148.627 29.1257 148.598 32.3398 148.685 33.5911C148.742 34.1316 149.146 34.8996 149.636 35.1272C150.155 35.4117 151.338 35.4683 152.145 35.4683C154.423 35.4683 156.413 34.217 156.413 31.2873ZM143.09 17.009C143.378 17.009 144.243 17.0942 146.464 17.0942C148.569 17.0942 150.242 17.0375 152.289 17.0375C154.798 17.0375 158.259 17.9192 158.259 21.6166C158.259 23.4371 156.961 24.8877 155.259 25.5988C155.173 25.6273 155.173 25.684 155.259 25.7124C157.682 26.3099 159.816 27.789 159.816 30.5763C159.816 33.3069 158.086 35.0417 155.577 36.1227C154.048 36.7768 152.145 37.0044 150.213 37.0044C148.742 37.0044 144.791 36.8338 142.6 36.8907C142.369 36.8053 142.802 35.7813 143.003 35.6107C143.523 35.5822 143.926 35.5538 144.474 35.3832C145.253 35.1841 145.339 34.9566 145.455 33.7905C145.512 32.7949 145.512 29.2678 145.512 26.7649C145.512 23.3232 145.541 20.991 145.512 19.8533C145.484 18.9717 145.166 18.6872 144.532 18.5163C144.042 18.4312 143.234 18.3173 142.571 18.2321C142.427 18.0897 142.917 17.1227 143.09 17.009ZM126.45 34.7006C127.143 35.2408 128.498 35.4683 129.709 35.4683C131.266 35.4683 132.824 35.1841 134.323 33.8471C135.852 32.482 136.919 30.3772 136.919 27.0209C136.919 23.8068 135.679 21.19 133.141 19.6542C131.699 18.7723 129.853 18.4027 127.719 18.4027C127.085 18.4027 126.479 18.4312 126.104 18.6018C126.018 18.6587 125.816 18.9147 125.816 19.0568C125.758 19.6258 125.758 24.0058 125.758 26.5659C125.758 29.2111 125.758 32.9085 125.816 33.3351C125.816 33.762 126.018 34.4161 126.45 34.7006ZM119.904 17.009C120.452 17.009 122.557 17.0942 123.567 17.0942C125.383 17.0942 126.681 17.009 130.113 17.009C132.997 17.009 135.419 17.7771 137.149 19.2274C139.254 21.0194 140.35 23.4941 140.35 26.5089C140.35 30.8038 138.36 33.2784 136.371 34.7006C134.381 36.1512 131.785 37.0044 128.094 37.0044C126.133 37.0044 122.759 36.9474 119.962 36.9189H119.933C119.789 36.6632 120.164 35.6677 120.394 35.6392C121.144 35.5538 121.346 35.5253 121.721 35.3832C122.326 35.1556 122.442 34.8427 122.529 33.7905C122.615 31.8278 122.586 29.4671 122.586 26.7934C122.586 24.8877 122.615 21.1615 122.557 19.9669C122.471 18.9717 122.038 18.7157 121.173 18.5448C120.74 18.4596 120.164 18.3457 119.356 18.2606C119.241 18.0613 119.76 17.1796 119.904 17.009Z" fill="#58AA50"/>
<path fill-rule="evenodd" clip-rule="evenodd" d="M85.0104 35.8097C84.2894 35.7243 83.7703 35.6107 83.1357 35.3262C83.0494 35.2692 82.905 34.985 82.905 34.8711C82.8473 33.8756 82.8473 31.0313 82.8473 29.1256C82.8473 27.5896 82.588 26.2529 81.9245 25.3143C81.1458 24.2333 80.0213 23.6077 78.5794 23.6077C77.3104 23.6077 75.609 24.4611 74.196 25.6557C74.1671 25.6839 73.9364 25.8832 73.9653 25.5703C73.9653 25.2573 74.023 24.6317 74.0519 24.2051C74.0807 23.8067 73.8501 23.6077 73.8501 23.6077C72.927 24.0627 70.3317 24.6602 69.38 24.7453C68.688 24.8877 68.515 25.5418 69.236 25.7693H69.2648C70.0432 25.9969 70.5624 26.2529 70.966 26.5089C71.2544 26.7364 71.2256 27.0494 71.2256 27.3054C71.2544 29.4386 71.2544 32.7095 71.1681 34.5015C71.1392 35.2126 70.9374 35.4683 70.4183 35.5822L70.4758 35.5537C70.0721 35.6392 69.7548 35.7243 69.2646 35.7813C69.0916 35.9518 69.0916 36.8622 69.2646 37.0613C69.5819 37.0613 71.2544 36.9759 72.6389 36.9759C74.5421 36.9759 75.5226 37.0613 76.0129 37.0613C76.2147 36.8338 76.2724 35.9803 76.157 35.7813C75.609 35.7528 75.2053 35.6961 74.8306 35.5822C74.3114 35.4683 74.1671 35.2126 74.1382 34.6151C74.0807 33.1076 74.0807 29.9221 74.0807 27.7604C74.0807 27.163 74.2537 26.8785 74.4267 26.7079C75.0899 26.1393 76.157 25.7409 77.1086 25.7409C78.0314 25.7409 78.6371 26.0254 79.0985 26.3953C79.7328 26.907 79.9346 27.6465 80.0213 28.187C80.1653 29.4101 80.1079 31.8278 80.1079 33.9325C80.1079 35.0702 80.0213 35.3547 79.5887 35.4968C79.3869 35.5822 78.8678 35.6961 78.2621 35.7528C78.0602 35.9518 78.118 36.8338 78.2621 37.0328C79.0985 37.0328 80.079 36.9474 81.5209 36.9474C83.3087 36.9474 84.4624 37.0328 84.9238 37.0328C85.0679 36.8622 85.1256 36.0373 85.0101 35.8097H85.0104ZM92.9985 24.9446C91.47 24.9446 90.5184 26.1108 90.5184 27.931C90.5184 29.7798 91.3545 31.913 93.7195 31.913C94.1231 31.913 94.8729 31.7424 95.2188 31.3443C95.7668 30.8323 96.1419 29.8082 96.1419 28.7275C96.1419 26.3668 94.9593 24.9446 92.9985 24.9446ZM92.7964 37.5164C92.2198 37.5164 91.8159 37.6869 91.5566 37.8293C90.3452 38.5971 89.7974 39.3366 89.7974 40.2185C89.7974 41.0432 90.1145 41.6973 90.8068 42.2663C91.643 42.9774 92.7964 43.3188 94.2672 43.3188C97.2087 43.3188 98.5065 41.7543 98.5065 40.2185C98.5065 39.1375 97.9585 38.4265 96.8339 38.0284C96.0264 37.6869 94.5556 37.5164 92.7964 37.5164ZM92.9985 44.9115C91.2393 44.9115 89.9704 44.5416 88.8747 43.7169C87.8076 42.9204 87.3462 41.7258 87.3462 40.9011C87.3462 40.6736 87.4039 40.0477 87.923 39.479C88.2401 39.1375 88.9321 38.4834 90.5761 37.3742C90.6336 37.3458 90.6625 37.3173 90.6625 37.2603C90.6625 37.2034 90.6047 37.1464 90.5473 37.1182C89.1917 36.6062 88.7881 35.7813 88.6726 35.3262V35.2692C88.644 35.0987 88.5863 34.9281 88.8458 34.7572C89.0476 34.6151 89.3361 34.4445 89.6531 34.2455C90.1433 33.961 90.6625 33.6481 90.9798 33.392C91.0375 33.3351 91.0375 33.2784 91.0375 33.2215C91.0375 33.1645 90.9798 33.1076 90.922 33.0794C88.9035 32.425 87.8942 30.9459 87.8942 28.7275C87.8942 27.2769 88.5574 25.9684 89.7397 25.1437C90.5473 24.5178 92.5657 23.75 93.8924 23.75H93.979C95.3343 23.7782 96.0841 24.0627 97.151 24.4326C97.7278 24.6317 98.2758 24.7168 99.0256 24.7168C100.15 24.7168 100.64 24.3757 101.044 23.9776C101.073 24.0343 101.131 24.1766 101.16 24.5463C101.188 24.9162 101.073 25.4564 100.785 25.8548C100.554 26.1675 100.035 26.3953 99.5159 26.3953H99.3715C98.8524 26.3383 98.6217 26.2814 98.6217 26.2814L98.5065 26.3383C98.4776 26.3953 98.5065 26.4519 98.5354 26.5374L98.5643 26.5943C98.6217 26.8503 98.7372 27.6181 98.7372 27.8174C98.7372 30.1497 97.7856 31.1734 96.7762 31.9414C95.7957 32.6525 94.6711 33.1076 93.4022 33.2215C93.3733 33.2215 93.2581 33.2215 92.9985 33.2499C92.8542 33.2499 92.6523 33.2784 92.6235 33.2784H92.5946C92.3639 33.3351 91.7873 33.6196 91.7873 34.1031C91.7873 34.5297 92.0469 35.0417 93.2867 35.1271C93.5462 35.1556 93.8058 35.1556 94.0942 35.1841C95.7379 35.2977 97.7856 35.4401 98.7372 35.7528C100.064 36.2363 100.9 37.4025 100.9 38.7964C100.9 40.9011 99.3715 42.8637 96.8339 44.0866C95.5939 44.627 94.3538 44.9115 92.9985 44.9115ZM109.436 25.0868C108.83 25.0868 108.282 25.2289 107.879 25.5133C106.754 26.1959 106.177 27.5614 106.177 29.5522C106.177 33.2784 108.081 35.8952 110.791 35.8952C111.599 35.8952 112.233 35.6676 112.781 35.2126C113.617 34.5297 114.05 33.1645 114.05 31.2588C114.05 27.5614 112.176 25.0868 109.436 25.0868ZM109.955 37.2603C105.053 37.2603 103.294 33.705 103.294 30.3772C103.294 28.0449 104.245 26.2529 106.148 24.9729C107.504 24.1482 109.119 23.6931 110.561 23.6931C114.31 23.6931 116.934 26.3383 116.934 30.1497C116.934 32.7379 115.896 34.7857 113.906 36.0373C112.954 36.6629 111.311 37.2603 109.955 37.2603H109.955ZM58.5659 25.0868C57.9601 25.0868 57.4124 25.2289 57.0085 25.5133C55.8839 26.1959 55.3071 27.5614 55.3071 29.5522C55.3071 33.2784 57.2103 35.8952 59.9212 35.8952C60.7287 35.8952 61.363 35.6676 61.911 35.2126C62.7472 34.5297 63.18 33.1645 63.18 31.2588C63.18 27.5614 61.3342 25.0868 58.5659 25.0868ZM59.085 37.2603C54.1825 37.2603 52.4233 33.705 52.4233 30.3772C52.4233 28.0449 53.3749 26.2529 55.2782 24.9729C56.6337 24.1482 58.2486 23.6931 59.6905 23.6931C63.4395 23.6931 66.0637 26.3383 66.0637 30.1497C66.0637 32.7379 65.0255 34.7857 63.0356 36.0373C62.1129 36.6629 60.4691 37.2603 59.085 37.2603ZM26.1231 36.9759C26.0654 36.8907 26.0076 36.6347 26.0365 36.3217C26.0365 36.0942 26.0942 35.9518 26.1231 35.8952C26.7286 35.8097 27.0459 35.7243 27.3918 35.6392C27.9686 35.4968 28.1993 35.1841 28.2282 34.473C28.3148 32.7664 28.3148 29.5237 28.2859 27.2769V27.22C28.2859 26.964 28.2859 26.651 27.9686 26.4235C27.5073 26.1393 26.9593 25.8832 26.2383 25.6839C25.9788 25.5988 25.8058 25.4564 25.8347 25.2858C25.8347 25.1152 26.0076 24.9162 26.3827 24.8592C27.3343 24.7738 29.8142 24.1766 30.7947 23.75C30.8524 23.8067 30.939 23.9776 30.939 24.2051L30.9102 24.5178C30.8813 24.8307 30.8524 25.2007 30.8524 25.5703C30.8524 25.6839 30.9679 25.7693 31.0831 25.7693C31.1409 25.7693 31.1986 25.7409 31.2563 25.7124C33.1019 24.2903 34.7744 23.7782 35.6395 23.7782C37.0528 23.7782 38.1485 24.4326 38.9849 25.7978C39.0424 25.8832 39.1001 25.9115 39.1867 25.9115C39.2445 25.9115 39.3308 25.8832 39.3597 25.8263C41.0611 24.5463 42.7626 23.7782 43.8872 23.7782C46.5691 23.7782 48.1554 25.7409 48.1554 29.0687C48.1554 30.0073 48.1554 31.2304 48.1265 32.3398C48.1265 33.3351 48.0976 34.2455 48.0976 34.8996C48.0976 35.0417 48.2994 35.4968 48.6167 35.5822C49.0204 35.7813 49.5684 35.8667 50.2893 35.9803H50.3182C50.3759 36.1794 50.2604 36.9189 50.1452 37.0613C49.972 37.0613 49.7125 37.0613 49.4243 37.0328C48.8763 37.0043 48.0976 36.9759 47.2326 36.9759C45.4445 36.9759 44.5218 37.0043 43.6276 37.0613C43.5701 36.8338 43.5413 36.1512 43.6276 35.9803C44.1467 35.8952 44.4063 35.8097 44.7236 35.7243C45.3005 35.5537 45.4445 35.2977 45.4734 34.5582C45.4734 34.018 45.5886 29.4101 45.4157 28.3007C45.2427 27.163 44.3774 25.8263 42.4741 25.8263C41.7532 25.8263 40.6286 26.1108 39.5326 26.9355C39.4752 26.9924 39.4174 27.1345 39.4174 27.22V27.2484C39.5326 27.8456 39.5326 28.5285 39.5326 29.5807V31.4294C39.5326 32.7095 39.5038 33.9041 39.5326 34.8142C39.5326 35.4401 39.9077 35.5822 40.225 35.6961C40.3979 35.7243 40.5131 35.7528 40.6575 35.7813C40.917 35.8382 41.1766 35.8952 41.5802 35.9803C41.638 36.0942 41.638 36.4639 41.5514 36.7768C41.5225 36.9474 41.4648 37.0328 41.4362 37.0613C40.4557 37.0328 39.4463 37.0043 37.9755 37.0043C37.543 37.0043 36.7932 37.0328 36.1586 37.0328C35.6395 37.0328 35.1492 37.0613 34.8611 37.0613C34.8322 37.0043 34.7744 36.8053 34.7744 36.4923C34.7744 36.2363 34.8322 36.0373 34.8899 35.9803C35.034 35.9518 35.1492 35.9236 35.2936 35.9236C35.6395 35.8667 35.9279 35.8097 36.2163 35.7528C36.7066 35.6107 36.8795 35.3547 36.9084 34.729C36.995 33.3069 37.0814 29.2395 36.8795 28.2155C36.5336 26.5658 35.582 25.7409 34.0535 25.7409C33.1596 25.7409 32.0348 26.1675 31.112 26.8503C30.9679 26.964 30.8524 27.2484 30.8524 27.5044V29.1826C30.8524 31.2304 30.8524 33.7904 30.8813 34.8996C30.9102 35.2408 31.0254 35.6392 31.6888 35.7813C31.8329 35.8097 32.0636 35.8667 32.3521 35.8952L32.8712 35.9803C32.9289 36.1512 32.9 36.8338 32.7846 37.0613C32.4961 37.0613 32.1502 37.0328 31.7463 37.0328C31.1409 37.0043 30.3622 36.9759 29.4971 36.9759C28.4878 36.9759 27.7668 37.0043 27.19 37.0328C26.7863 36.9759 26.469 36.9759 26.1231 36.9759Z" fill="white"/>
<path fill-rule="evenodd" clip-rule="evenodd" d="M10.9541 43.8024L9.77181 43.404C9.77181 43.404 9.91616 37.4594 7.75333 37.0329C6.31144 35.3832 7.98402 -32.9369 13.1747 36.8053C13.1747 36.8053 11.3869 37.687 11.0696 39.1945C10.7234 40.6736 10.9541 43.8024 10.9541 43.8024Z" fill="white"/>
<path fill-rule="evenodd" clip-rule="evenodd" d="M10.9541 43.8024L9.77181 43.404C9.77181 43.404 9.91616 37.4594 7.75333 37.0329C6.31144 35.3832 7.98402 -32.9369 13.1747 36.8053C13.1747 36.8053 11.3869 37.687 11.0696 39.1945C10.7234 40.6736 10.9541 43.8024 10.9541 43.8024Z" fill="#A6A385"/>
<path fill-rule="evenodd" clip-rule="evenodd" d="M11.5887 38.0567C11.5887 38.0567 21.9414 31.3441 19.519 17.3785C17.1833 7.22446 11.675 3.89664 11.0695 2.61661C10.4063 1.70649 9.77173 0.11377 9.77173 0.11377L10.2045 28.3575C10.2045 28.3859 9.31035 37.0042 11.5887 38.0567Z" fill="white"/>
<path fill-rule="evenodd" clip-rule="evenodd" d="M11.5887 38.0567C11.5887 38.0567 21.9414 31.3441 19.519 17.3785C17.1833 7.22446 11.675 3.89664 11.0695 2.61661C10.4063 1.70649 9.77173 0.11377 9.77173 0.11377L10.2045 28.3575C10.2045 28.3859 9.31035 37.0042 11.5887 38.0567Z" fill="#499D4A"/>
<path fill-rule="evenodd" clip-rule="evenodd" d="M9.16628 38.4264C9.16628 38.4264 -0.552162 31.8844 0.0247011 20.3652C0.572424 8.84578 7.43596 3.1857 8.76237 2.16168C9.62767 1.25155 9.65654 0.910125 9.71428 0C10.3197 1.28003 10.2045 19.1422 10.2909 21.2469C10.5504 29.3531 9.82949 36.8907 9.16628 38.4264Z" fill="white"/>
<path fill-rule="evenodd" clip-rule="evenodd" d="M9.16628 38.4264C9.16628 38.4264 -0.552162 31.8844 0.0247011 20.3652C0.572424 8.84578 7.43596 3.1857 8.76237 2.16168C9.62767 1.25155 9.65654 0.910125 9.71428 0C10.3197 1.28003 10.2045 19.1422 10.2909 21.2469C10.5504 29.3531 9.82949 36.8907 9.16628 38.4264Z" fill="#58AA50"/>
</svg>
