<svg width="65" height="65" viewBox="0 0 65 65" fill="none" xmlns="http://www.w3.org/2000/svg">
<path d="M0 0H65V65H0V0Z" fill="#F7DF1E"/>
<path d="M17.0909 54.3188L22.0652 51.3084C23.0248 53.0099 23.8978 54.4495 25.9917 54.4495C27.9989 54.4495 29.2643 53.6643 29.2643 50.6104V29.8413H35.3726V50.6967C35.3726 57.0234 31.6641 59.9031 26.2536 59.9031C21.3671 59.9031 18.5306 57.3723 17.0908 54.3183" fill="black"/>
<path d="M38.6904 53.6641L43.6641 50.7844C44.9734 52.9226 46.675 54.4932 49.6854 54.4932C52.2164 54.4932 53.8304 53.2278 53.8304 51.4825C53.8304 49.3881 52.1725 48.6463 49.3799 47.425L47.8533 46.7701C43.4462 44.8943 40.5227 42.5382 40.5227 37.564C40.5227 32.9826 44.0132 29.4919 49.4674 29.4919C53.3507 29.4919 56.1431 30.8447 58.15 34.3789L53.3941 37.433C52.3468 35.557 51.2127 34.8153 49.4675 34.8153C47.6786 34.8153 46.5441 35.9497 46.5441 37.433C46.5441 39.2656 47.6786 40.0075 50.2962 41.142L51.8232 41.7964C57.0155 44.0218 59.9389 46.2904 59.9389 51.3952C59.9389 56.8932 55.6194 59.9035 49.8165 59.9035C44.1443 59.9035 40.4792 57.1984 38.6905 53.6641" fill="black"/>
</svg>
