<svg width="72" height="65" viewBox="0 0 72 65" fill="none" xmlns="http://www.w3.org/2000/svg">
<path d="M0.212158 32.4294C0.212158 37.8596 5.48911 42.9288 13.8086 45.7861C12.1473 54.1903 13.5109 60.9639 18.0655 63.6034C22.7471 66.3162 29.7215 64.4383 36.3412 58.624C42.7939 64.2036 49.3155 66.3995 53.8658 63.7525C58.5428 61.0319 59.9655 53.7988 58.2582 45.1323C66.9235 42.2536 71.7705 37.931 71.7705 32.4294C71.7705 27.1252 66.4838 22.5363 58.2765 19.6972C60.1144 10.6726 58.5571 4.0633 53.814 1.31488C49.2412 -1.33477 42.6439 0.974672 36.0963 6.70042C29.2846 0.622991 22.7524 -1.23252 18.014 1.52391C13.4456 4.18109 12.1419 11.0779 13.8086 19.6376C5.77003 22.4539 0.212158 27.1464 0.212158 32.4294Z" fill="white"/>
<path d="M56.5382 22.5166C55.8789 22.2885 55.1958 22.0728 54.4924 21.8688C54.608 21.3947 54.7141 20.9267 54.8085 20.4667C56.3571 12.9133 55.3446 6.82827 51.8871 4.82481C48.5718 2.90376 43.1499 4.90677 37.6741 9.69525C37.1475 10.1557 36.6195 10.6432 36.0916 11.1541C35.74 10.8161 35.3888 10.4894 35.0386 10.177C29.2998 5.0568 23.5475 2.8991 20.0934 4.90836C16.7813 6.83498 15.8004 12.5555 17.1944 19.7139C17.329 20.4053 17.4864 21.1114 17.6643 21.8293C16.8502 22.0616 16.0642 22.3091 15.3122 22.5725C8.58403 24.9296 4.28711 28.6237 4.28711 32.4554C4.28711 36.4129 8.89986 40.3823 15.9078 42.7892C16.4608 42.9791 17.0347 43.1587 17.6261 43.3292C17.4341 44.1057 17.2671 44.8665 17.127 45.6086C15.7978 52.6428 16.8358 58.2282 20.1391 60.1427C23.5511 62.1198 29.2774 60.0875 34.8533 55.1899C35.2941 54.8028 35.7363 54.3922 36.1794 53.9619C36.7537 54.5176 37.3271 55.0435 37.8975 55.5368C43.2984 60.207 48.6328 62.0928 51.933 60.173C55.3416 58.1902 56.4494 52.1902 55.0112 44.8902C54.9013 44.3326 54.7735 43.7631 54.63 43.1834C55.0321 43.0639 55.4269 42.9406 55.8118 42.8124C63.0972 40.3869 67.8374 36.4658 67.8374 32.4554C67.8374 28.6098 63.4019 24.8908 56.5382 22.5166Z" fill="#53C1DE"/>
<path d="M54.9581 40.2229C54.6106 40.3385 54.2541 40.4502 53.8907 40.5586C53.0865 38.0001 52.001 35.2795 50.6726 32.4687C51.9402 29.7248 52.9838 27.039 53.7655 24.4971C54.4156 24.6861 55.0466 24.8855 55.6546 25.0959C61.5354 27.1302 65.1226 30.1379 65.1226 32.4554C65.1226 34.924 61.2486 38.1285 54.9581 40.2229ZM52.348 45.4199C52.984 48.6479 53.0748 51.5663 52.6536 53.8478C52.2751 55.8979 51.5139 57.2647 50.5728 57.8121C48.57 58.977 44.2871 57.4628 39.6681 53.4689C39.1386 53.011 38.6053 52.5222 38.0702 52.0048C39.8609 50.0369 41.6505 47.7491 43.3972 45.2084C46.4694 44.9344 49.3719 44.4866 52.004 43.8752C52.1337 44.4007 52.2488 44.916 52.348 45.4199ZM25.9529 57.6108C23.9962 58.3052 22.4378 58.3251 21.4957 57.7793C19.4912 56.6175 18.6578 52.133 19.7945 46.1174C19.9247 45.4284 20.0797 44.7208 20.2583 43.9974C22.8616 44.5758 25.7429 44.9921 28.8224 45.2429C30.5808 47.7291 32.4222 50.0144 34.2778 52.0153C33.8724 52.4086 33.4685 52.783 33.067 53.1358C30.6013 55.3015 28.1305 56.838 25.9529 57.6108ZM16.7859 40.2078C13.6872 39.1436 11.1281 37.7604 9.37394 36.251C7.79774 34.8946 7.00195 33.548 7.00195 32.4554C7.00195 30.1301 10.452 27.1643 16.206 25.1484C16.9041 24.9038 17.635 24.6733 18.3934 24.4568C19.1887 27.0561 20.2319 29.7737 21.4907 32.5218C20.2156 35.3107 19.1576 38.0716 18.3545 40.7013C17.8138 40.5452 17.29 40.3808 16.7859 40.2078ZM19.8588 19.19C18.6645 13.0568 19.4577 8.43022 21.4536 7.26925C23.5797 6.03246 28.281 7.79586 33.2361 12.2169C33.5528 12.4994 33.8708 12.7952 34.1897 13.1012C32.3432 15.0934 30.5187 17.3615 28.7759 19.833C25.7871 20.1114 22.9261 20.5585 20.2957 21.1573C20.1303 20.4888 19.9838 19.8321 19.8588 19.19ZM47.2715 25.9916C46.6427 24.9002 45.9971 23.8346 45.339 22.7981C47.3666 23.0556 49.3093 23.3975 51.1337 23.8159C50.586 25.5798 49.9033 27.424 49.0997 29.3146C48.5233 28.2149 47.9136 27.1061 47.2715 25.9916ZM36.0927 15.0508C37.3449 16.4139 38.5989 17.9359 39.8324 19.5872C38.5894 19.5283 37.3311 19.4976 36.0623 19.4976C34.8056 19.4976 33.5565 19.5276 32.3213 19.5855C33.556 17.9496 34.8209 16.4296 36.0927 15.0508ZM24.8422 26.0105C24.2141 27.1049 23.6157 28.2077 23.0483 29.3125C22.2577 27.4285 21.5814 25.5759 21.0289 23.7871C22.8421 23.3793 24.7756 23.046 26.7904 22.7933C26.123 23.8393 25.4721 24.9128 24.8422 26.0102V26.0105ZM26.8484 42.3121C24.7668 42.0787 22.8042 41.7625 20.9914 41.366C21.5527 39.5452 22.244 37.6531 23.0513 35.7285C23.6202 36.8325 24.221 37.9357 24.853 39.0326H24.8531C25.4968 40.1501 26.1638 41.2447 26.8484 42.3121ZM36.1678 50.0523C34.8811 48.6573 33.5976 47.1142 32.3441 45.4543C33.561 45.5023 34.8015 45.5269 36.0623 45.5269C37.3577 45.5269 38.6382 45.4975 39.8985 45.4412C38.661 47.1309 37.4115 48.6764 36.1678 50.0523ZM49.1256 35.6304C49.975 37.5758 50.6911 39.4581 51.2596 41.2478C49.417 41.6702 47.4276 42.0104 45.3315 42.2632C45.9912 41.2127 46.6424 40.1288 47.2824 39.0139C47.9297 37.8858 48.5444 36.7561 49.1256 35.6304ZM44.9307 37.651C43.9373 39.3818 42.9174 41.034 41.8821 42.5936C39.9963 42.7291 38.048 42.7989 36.0623 42.7989C34.0847 42.7989 32.161 42.7372 30.3086 42.6164C29.2315 41.0363 28.1894 39.3792 27.2023 37.6659H27.2026C26.2181 35.9573 25.312 34.2342 24.491 32.5209C25.3118 30.8035 26.2155 29.0785 27.1943 27.373L27.1941 27.3733C28.1755 25.6632 29.2084 24.0142 30.2755 22.444C32.1655 22.3004 34.1036 22.2255 36.0622 22.2255H36.0623C38.0298 22.2255 39.9704 22.301 41.8598 22.4458C42.9107 24.0045 43.9365 25.6482 44.9218 27.3585C45.9183 29.0881 46.8336 30.8016 47.6614 32.4821C46.8361 34.1915 45.9228 35.9223 44.9307 37.651ZM50.5311 7.18809C52.6592 8.42124 53.4868 13.3945 52.1497 19.9161C52.0644 20.3322 51.9684 20.7561 51.8641 21.1856C49.2276 20.5743 46.3645 20.1194 43.367 19.8369C41.6208 17.3382 39.8112 15.0666 37.9949 13.0999C38.4832 12.6279 38.9709 12.1778 39.4565 11.753C44.1482 7.65025 48.5332 6.03041 50.5311 7.18809Z" fill="white"/>
<path d="M36.0623 26.7532C39.1963 26.7532 41.7371 29.3061 41.7371 32.4554C41.7371 35.6046 39.1963 38.1576 36.0623 38.1576C32.9282 38.1576 30.3875 35.6046 30.3875 32.4554C30.3875 29.3061 32.9282 26.7532 36.0623 26.7532Z" fill="#53C1DE"/>
</svg>
