<svg width="64" height="57" viewBox="0 0 64 57" fill="none" xmlns="http://www.w3.org/2000/svg">
<path d="M52.5382 18.5166C51.8789 18.2885 51.1958 18.0728 50.4924 17.8688C50.608 17.3947 50.7141 16.9267 50.8085 16.4667C52.3571 8.91334 51.3446 2.82827 47.8871 0.824814C44.5718 -1.09624 39.1499 0.906766 33.6741 5.69525C33.1475 6.15571 32.6195 6.64322 32.0916 7.15414C31.74 6.8161 31.3888 6.48943 31.0386 6.17696C25.2998 1.0568 19.5475 -1.1009 16.0934 0.908358C12.7813 2.83498 11.8004 8.55552 13.1944 15.7139C13.329 16.4053 13.4864 17.1114 13.6643 17.8293C12.8502 18.0616 12.0642 18.3091 11.3122 18.5725C4.58403 20.9296 0.287109 24.6237 0.287109 28.4554C0.287109 32.4129 4.89986 36.3823 11.9078 38.7892C12.4608 38.9791 13.0347 39.1587 13.6261 39.3292C13.4341 40.1057 13.2671 40.8665 13.127 41.6086C11.7978 48.6428 12.8358 54.2282 16.1391 56.1427C19.5511 58.1198 25.2774 56.0875 30.8533 51.1899C31.2941 50.8028 31.7363 50.3922 32.1794 49.9619C32.7537 50.5176 33.3271 51.0435 33.8975 51.5368C39.2984 56.207 44.6328 58.0928 47.933 56.173C51.3416 54.1902 52.4494 48.1902 51.0112 40.8902C50.9013 40.3326 50.7735 39.7631 50.63 39.1834C51.0321 39.0639 51.4269 38.9406 51.8118 38.8124C59.0972 36.3869 63.8374 32.4658 63.8374 28.4554C63.8374 24.6098 59.4019 20.8908 52.5382 18.5166Z" fill="#53C1DE"/>
<path d="M50.9581 36.2229C50.6106 36.3385 50.2541 36.4502 49.8907 36.5586C49.0865 34.0001 48.001 31.2795 46.6726 28.4687C47.9402 25.7248 48.9838 23.039 49.7655 20.4971C50.4156 20.6861 51.0466 20.8855 51.6546 21.0959C57.5354 23.1302 61.1226 26.1379 61.1226 28.4554C61.1226 30.924 57.2486 34.1285 50.9581 36.2229ZM48.348 41.4199C48.984 44.6479 49.0748 47.5663 48.6536 49.8478C48.2751 51.8979 47.5139 53.2647 46.5728 53.8121C44.57 54.977 40.2871 53.4628 35.6681 49.4689C35.1386 49.011 34.6053 48.5222 34.0702 48.0048C35.8609 46.0369 37.6505 43.7491 39.3972 41.2084C42.4694 40.9344 45.3719 40.4866 48.004 39.8752C48.1337 40.4007 48.2488 40.916 48.348 41.4199ZM21.9529 53.6108C19.9962 54.3052 18.4378 54.3251 17.4957 53.7793C15.4912 52.6175 14.6578 48.133 15.7945 42.1174C15.9247 41.4284 16.0797 40.7208 16.2583 39.9974C18.8616 40.5758 21.7429 40.9921 24.8224 41.2429C26.5808 43.7291 28.4222 46.0144 30.2778 48.0153C29.8724 48.4086 29.4685 48.783 29.067 49.1358C26.6013 51.3015 24.1305 52.838 21.9529 53.6108ZM12.7859 36.2078C9.68715 35.1436 7.12807 33.7604 5.37394 32.251C3.79774 30.8946 3.00195 29.548 3.00195 28.4554C3.00195 26.1301 6.45196 23.1643 12.206 21.1484C12.9041 20.9038 13.635 20.6733 14.3934 20.4568C15.1887 23.0561 16.2319 25.7737 17.4907 28.5218C16.2156 31.3107 15.1576 34.0716 14.3545 36.7013C13.8138 36.5452 13.29 36.3808 12.7859 36.2078ZM15.8588 15.19C14.6645 9.05685 15.4577 4.43022 17.4536 3.26925C19.5797 2.03246 24.281 3.79586 29.2361 8.21686C29.5528 8.49943 29.8708 8.79519 30.1897 9.10118C28.3432 11.0934 26.5187 13.3615 24.7759 15.833C21.7871 16.1114 18.9261 16.5585 16.2957 17.1573C16.1303 16.4888 15.9838 15.8321 15.8588 15.19ZM43.2715 21.9916C42.6427 20.9002 41.9971 19.8346 41.339 18.7981C43.3666 19.0556 45.3093 19.3975 47.1337 19.8159C46.586 21.5798 45.9033 23.424 45.0997 25.3146C44.5233 24.2149 43.9136 23.1061 43.2715 21.9916ZM32.0927 11.0508C33.3449 12.4139 34.5989 13.9359 35.8324 15.5872C34.5894 15.5283 33.3311 15.4976 32.0623 15.4976C30.8056 15.4976 29.5565 15.5276 28.3213 15.5855C29.556 13.9496 30.8209 12.4296 32.0927 11.0508ZM20.8422 22.0105C20.2141 23.1049 19.6157 24.2077 19.0483 25.3125C18.2577 23.4285 17.5814 21.5759 17.0289 19.7871C18.8421 19.3793 20.7756 19.046 22.7904 18.7933C22.123 19.8393 21.4721 20.9128 20.8422 22.0102V22.0105ZM22.8484 38.3121C20.7668 38.0787 18.8042 37.7625 16.9914 37.366C17.5527 35.5452 18.244 33.6531 19.0513 31.7285C19.6202 32.8325 20.221 33.9357 20.853 35.0326H20.8531C21.4968 36.1501 22.1638 37.2447 22.8484 38.3121ZM32.1678 46.0523C30.8811 44.6573 29.5976 43.1142 28.3441 41.4543C29.561 41.5023 30.8015 41.5269 32.0623 41.5269C33.3577 41.5269 34.6382 41.4975 35.8985 41.4412C34.661 43.1309 33.4115 44.6764 32.1678 46.0523ZM45.1256 31.6304C45.975 33.5758 46.6911 35.4581 47.2596 37.2478C45.417 37.6702 43.4276 38.0104 41.3315 38.2632C41.9912 37.2127 42.6424 36.1288 43.2824 35.0139C43.9297 33.8858 44.5444 32.7561 45.1256 31.6304ZM40.9307 33.651C39.9373 35.3818 38.9174 37.034 37.8821 38.5936C35.9963 38.7291 34.048 38.7989 32.0623 38.7989C30.0847 38.7989 28.161 38.7372 26.3086 38.6164C25.2315 37.0363 24.1894 35.3792 23.2023 33.6659H23.2026C22.2181 31.9573 21.312 30.2342 20.491 28.5209C21.3118 26.8035 22.2155 25.0785 23.1943 23.373L23.1941 23.3733C24.1755 21.6632 25.2084 20.0142 26.2755 18.444C28.1655 18.3004 30.1036 18.2255 32.0622 18.2255H32.0623C34.0298 18.2255 35.9704 18.301 37.8598 18.4458C38.9107 20.0045 39.9365 21.6482 40.9218 23.3585C41.9183 25.0881 42.8336 26.8016 43.6614 28.4821C42.8361 30.1915 41.9228 31.9223 40.9307 33.651ZM46.5311 3.18809C48.6592 4.42124 49.4868 9.39454 48.1497 15.9161C48.0644 16.3322 47.9684 16.7561 47.8641 17.1856C45.2276 16.5743 42.3645 16.1194 39.367 15.8369C37.6208 13.3382 35.8112 11.0666 33.9949 9.09993C34.4832 8.62787 34.9709 8.17776 35.4565 7.75299C40.1482 3.65025 44.5332 2.03041 46.5311 3.18809Z" fill="white"/>
<path d="M32.0623 22.7532C35.1963 22.7532 37.7371 25.3061 37.7371 28.4554C37.7371 31.6046 35.1963 34.1576 32.0623 34.1576C28.9282 34.1576 26.3875 31.6046 26.3875 28.4554C26.3875 25.3061 28.9282 22.7532 32.0623 22.7532Z" fill="#53C1DE"/>
</svg>
