<svg width="87" height="65" viewBox="0 0 87 65" fill="none" xmlns="http://www.w3.org/2000/svg">
<path d="M74.611 37.3605C71.5784 37.3738 68.9522 38.1052 66.7591 39.1886C65.9602 37.5768 65.1343 36.1687 64.9988 35.1127C64.8368 33.8803 64.6604 33.1493 64.8501 31.687C65.0399 30.2243 65.8924 28.1525 65.879 28.0039C65.8657 27.855 65.6895 27.1101 63.9432 27.0965C62.1968 27.0831 60.6943 27.4349 60.5181 27.8953C60.3417 28.3557 60.0037 29.3985 59.8006 30.4817C59.4892 32.0659 56.3076 37.726 54.5069 40.6778C53.9114 39.5272 53.4106 38.5113 53.3021 37.6989C53.1397 36.4665 52.9637 35.7355 53.1532 34.2732C53.3428 32.8105 54.1955 30.7387 54.1819 30.5901C54.1684 30.4412 53.9924 29.6963 52.2462 29.6827C50.4997 29.6693 48.9973 30.0211 48.821 30.4817C48.645 30.9419 48.4555 32.0252 48.1035 33.0683C47.7518 34.1104 43.5141 43.5346 42.404 45.9857C41.8352 47.2312 41.3482 48.2333 40.9961 48.9106C40.9422 49.0187 40.9015 49.0866 40.8743 49.1408C40.9149 49.0732 40.9422 49.0052 40.9422 49.0327C40.6443 49.6146 40.4681 49.9397 40.4681 49.9397V49.953C40.2379 50.3863 39.9807 50.7788 39.859 50.7788C39.7776 50.7788 39.6018 49.6417 39.8997 48.0844C40.5358 44.8076 42.0385 39.7168 42.0249 39.5404C42.0114 39.4456 42.3091 38.5656 41.0366 38.0914C39.8048 37.6446 39.3579 38.3896 39.2497 38.3896C39.1416 38.3896 39.0602 38.6605 39.0602 38.6605C39.0602 38.6605 40.4276 32.9192 36.4338 32.9192C33.9428 32.9192 30.4773 35.6547 28.7716 38.1325C27.702 38.7148 25.3869 39.974 22.9502 41.3144C22.0161 41.829 21.0548 42.3569 20.1478 42.8581C20.0802 42.7901 20.0259 42.7224 19.9583 42.6548C15.1117 37.4826 6.16307 33.8266 6.54234 26.88C6.67761 24.3479 7.55767 17.6997 23.749 9.62944C37.0163 3.02166 47.6299 4.83618 49.4578 8.87114C52.0838 14.626 43.785 25.3366 30.0036 26.88C24.7508 27.4623 21.9893 25.4312 21.2988 24.6731C20.5812 23.8743 20.4728 23.8334 20.2021 23.9825C19.7552 24.2261 20.0397 24.9303 20.2021 25.35C20.6083 26.4196 22.3004 28.3153 25.1841 29.2632C27.7154 30.0892 33.8754 30.5497 41.3211 27.6654C49.6875 24.4426 56.1994 15.4652 54.2905 7.95041C52.3412 0.313719 39.6832 -2.19145 27.7022 2.06022C20.5678 4.59234 12.8512 8.5734 7.30049 13.7592C0.707544 19.9339 -0.348292 25.3093 0.0846684 27.5572C1.6281 35.5324 12.6207 40.7321 17.0206 44.5775C16.804 44.6994 16.6009 44.8078 16.4115 44.9161C14.2049 46.0127 5.82488 50.3998 3.7264 55.0312C1.35755 60.2849 4.11885 64.0488 5.93303 64.5637C11.5918 66.1342 17.3861 63.3043 20.4999 58.6597C23.6134 54.0155 23.2345 47.9493 21.7996 45.1869C21.7858 45.1464 21.7589 45.1196 21.7455 45.0786C22.3139 44.7403 22.8959 44.4017 23.4783 44.0632C24.6018 43.3997 25.6985 42.7901 26.6596 42.2625C26.1179 43.725 25.7254 45.4845 25.5223 48.0305C25.2787 51.0093 26.5107 54.8684 28.1082 56.385C28.8119 57.0485 29.6648 57.0623 30.193 57.0623C32.0612 57.0623 32.9004 55.5184 33.8345 53.6769C34.9853 51.4287 36.0006 48.8154 36.0006 48.8154C36.0006 48.8154 34.7281 55.8841 38.2072 55.8841C39.4797 55.8841 40.7526 54.2456 41.3209 53.4061V53.4195C41.3209 53.4195 41.3482 53.3656 41.4158 53.2574C41.5511 53.0541 41.6187 52.9321 41.6187 52.9321V52.8913C42.1331 52.0112 43.2569 49.9936 44.9488 46.6628C47.1423 42.3567 49.2404 36.9809 49.2404 36.9809C49.2404 36.9809 49.4299 38.2948 50.0801 40.4747C50.459 41.761 51.2577 43.1693 51.8939 44.537C51.3798 45.241 51.0681 45.6473 51.0681 45.6473C51.0681 45.6473 51.0681 45.6607 51.0813 45.6742C50.6753 46.2162 50.2152 46.7985 49.7414 47.3672C48.0084 49.4252 45.9506 51.7815 45.6801 52.4584C45.3549 53.2574 45.4363 53.8527 46.0591 54.3134C46.5192 54.6656 47.3316 54.7195 48.1844 54.6521C49.7414 54.5433 50.8379 54.1646 51.3658 53.9204C52.205 53.623 53.18 53.1487 54.1006 52.4853C55.7928 51.2399 56.8219 49.4525 56.7268 47.0964C56.6727 45.7965 56.2527 44.4965 55.7384 43.2782C55.8874 43.0613 56.05 42.8308 56.1988 42.6011C58.8797 38.6873 60.9509 34.3955 60.9509 34.3955C60.9509 34.3955 61.1404 35.7086 61.79 37.8887C62.115 38.9856 62.7513 40.1907 63.3333 41.3685C60.8152 43.4133 59.2586 45.7832 58.7169 47.3399C57.715 50.2242 58.5002 51.5237 59.9759 51.8222C60.6392 51.9575 61.5869 51.6458 62.291 51.3479C63.1709 51.05 64.2269 50.576 65.2151 49.8449C66.9074 48.5994 68.5456 46.8524 68.4374 44.4829C68.3965 43.4131 68.0989 42.3435 67.7062 41.3144C69.8315 40.421 72.5937 39.9331 76.1133 40.3396C83.654 41.2196 85.1294 45.9316 84.8451 47.8949C84.5612 49.872 82.9772 50.9554 82.4491 51.2803C81.9208 51.6053 81.7586 51.7272 81.7995 51.9709C81.8669 52.3229 82.1105 52.3095 82.5573 52.2279C83.1803 52.1198 86.5104 50.6301 86.6591 46.9877C86.8761 42.3838 82.4495 37.32 74.611 37.3605ZM16.4927 56.9535C14.002 59.6752 10.5091 60.7043 9.00652 59.8377C7.39545 58.9038 8.0317 54.8955 11.1048 51.9977C12.9731 50.2376 15.3828 48.6128 16.9803 47.6109C17.3458 47.3943 17.8739 47.0693 18.5237 46.6766C18.6321 46.6093 18.6861 46.582 18.6861 46.582C18.8079 46.5004 18.9433 46.4329 19.0788 46.3515C20.2021 50.4679 19.1191 54.0965 16.4927 56.9535ZM34.6878 44.5775C33.8213 46.7031 31.9936 52.1196 30.8838 51.8352C29.9362 51.5914 29.3538 47.4616 30.6943 43.3997C31.3711 41.3549 32.806 38.9178 33.6591 37.9701C35.0262 36.4397 36.5289 35.9522 36.881 36.5617C37.3547 37.3605 35.2291 43.2507 34.6878 44.5775ZM49.7146 51.7544C49.3493 51.9438 49.0107 52.0655 48.8483 51.9707C48.7266 51.9031 48.9973 51.6456 48.9973 51.6456C48.9973 51.6456 50.8788 49.6282 51.6236 48.7071C52.0567 48.1657 52.5575 47.5291 53.0992 46.8253C53.0992 46.8925 53.1124 46.9607 53.1124 47.0416C53.0994 49.4657 50.7708 51.1044 49.7146 51.7544ZM61.3034 49.1137C61.0326 48.9241 61.073 48.2878 61.9801 46.3106C62.3323 45.5387 63.1447 44.239 64.5523 42.9932C64.7149 43.5077 64.8094 43.995 64.8094 44.4554C64.7957 47.5021 62.6164 48.6396 61.3034 49.1137Z" fill="#CF649A"/>
</svg>
